<svg width="32" height="32" viewBox="0 0 32 32" fill="none" xmlns="http://www.w3.org/2000/svg">
<rect width="32" height="32" rx="16" fill="#5C33CF" fill-opacity="0.12"/>
<path d="M14.9708 23.6756L14.4675 12.8008L23.8425 18.6646L20.3081 19.8343L22.3204 23.2441L19.7856 24.6758L17.7734 21.266L14.9708 23.6756Z" stroke="#5C33CF" stroke-width="0.75" stroke-linecap="round" stroke-linejoin="round"/>
<path d="M18.6367 15.849C19.227 15.0072 19.5171 13.9915 19.4605 12.965C19.4039 11.9384 19.0037 10.9608 18.3244 10.1891C17.6451 9.41736 16.7261 8.89645 15.7151 8.71006C14.704 8.52367 13.6597 8.68262 12.7498 9.16136C11.84 9.6401 11.1176 10.4108 10.6986 11.3497C10.2797 12.2885 10.1885 13.341 10.4398 14.3379C10.6912 15.3348 11.2704 16.2182 12.0843 16.8462C12.8983 17.4743 13.8998 17.8104 14.9278 17.8006" stroke="#5C33CF" stroke-width="0.75"/>
<path d="M15.948 13.9636C16.1154 13.7249 16.1977 13.4369 16.1816 13.1459C16.1656 12.8548 16.0521 12.5776 15.8595 12.3588C15.6669 12.14 15.4064 11.9924 15.1197 11.9395C14.833 11.8867 14.5369 11.9317 14.279 12.0675C14.021 12.2032 13.8162 12.4217 13.6974 12.6879C13.5786 12.9541 13.5528 13.2525 13.624 13.5351C13.6953 13.8178 13.8595 14.0682 14.0903 14.2463C14.3211 14.4244 14.605 14.5197 14.8965 14.5169" stroke="#5C33CF" stroke-width="2"/>
</svg>
