<svg width="32" height="32" viewBox="0 0 32 32" fill="none" xmlns="http://www.w3.org/2000/svg">
<rect width="32" height="32" rx="16" fill="#FFE9EC"/>
<path d="M22 16C22 19.3137 19.3137 22 16 22M22 16C22 12.6863 19.3137 10 16 10M22 16L10 16M16 22C12.6863 22 10 19.3137 10 16M16 22L16 10M16 22C17.8409 22 19.3333 19.3137 19.3333 16M16 22C14.1591 22 12.6667 19.3137 12.6667 16M10 16C10 12.6863 12.6863 10 16 10M16 10C14.1591 10 12.6667 12.6863 12.6667 16M16 10C17.8409 10 19.3333 12.6863 19.3333 16M19.3333 16H12.6667" stroke="#FF4E64" stroke-width="0.9"/>
</svg>
