<svg width="20" height="21" viewBox="0 0 20 21" fill="none" xmlns="http://www.w3.org/2000/svg">
<path d="M14.3839 5.38462C14.3839 7.80617 12.4208 9.76923 9.99924 9.76923C7.57769 9.76923 5.61463 7.80617 5.61463 5.38462C5.61463 2.96306 7.57769 1 9.99924 1C12.4208 1 14.3839 2.96306 14.3839 5.38462Z" stroke="#999CA0" stroke-width="1.75"/>
<path d="M9.99924 20C14.3425 20 16.8449 18.8797 18.0057 18.1586C18.5489 17.8212 18.8166 17.1999 18.7614 16.5563C18.6859 15.6773 18.3788 14.7994 18.0661 14.1031C17.6555 13.1888 16.7051 12.6923 15.7029 12.6923L4.29561 12.6923C3.29337 12.6923 2.34296 13.1888 1.93239 14.1031C1.61969 14.7994 1.31257 15.6773 1.23713 16.5563C1.18189 17.1999 1.44961 17.8212 1.99278 18.1586C3.15358 18.8797 5.65594 20 9.99924 20Z" stroke="#999CA0" stroke-width="1.75"/>
</svg>
