<svg width="19" height="20" viewBox="0 0 19 20" fill="none" xmlns="http://www.w3.org/2000/svg">
<path d="M7.03846 12.5646L7.03846 16.8767C7.03846 17.7555 6.3261 18.4678 5.44736 18.4678C4.63944 18.4678 3.95978 17.8624 3.86682 17.0598L3.34615 12.5646M1.5 10.8937L1.5 8.10635C1.5 7.46037 1.87238 6.87226 2.45631 6.59601C2.67968 6.49033 2.92372 6.43552 3.17083 6.43552L7.43048 6.43552C7.57623 6.43552 7.71882 6.39306 7.84081 6.31332L14.4058 2.02243C15.736 1.15298 17.5 2.10739 17.5 3.69655V15.3035C17.5 16.8927 15.736 17.8471 14.4058 16.9776L7.84081 12.6868C7.71882 12.607 7.57623 12.5646 7.43048 12.5646H3.17083C2.92372 12.5646 2.67968 12.5097 2.45631 12.4041C1.87238 12.1278 1.5 11.5397 1.5 10.8937Z" stroke="#999CA0" stroke-width="1.75"/>
</svg>
