<svg width="40" height="40" viewBox="0 0 40 40" fill="none" xmlns="http://www.w3.org/2000/svg">
<rect width="40" height="40" rx="8" fill="white" fill-opacity="0.12"/>
<path d="M24.125 20.5C24.125 22.9216 22.1662 24.8846 19.75 24.8846C17.3337 24.8846 15.375 22.9216 15.375 20.5C15.375 18.0785 17.3337 16.1154 19.75 16.1154C22.1662 16.1154 24.125 18.0785 24.125 20.5Z" stroke="white"/>
<path d="M18.4233 11.3431C19.2462 10.8857 20.2537 10.8857 21.0767 11.3431L27.1733 14.7949C27.9887 15.2651 28.4925 16.1207 28.5 17.0483V23.9518C28.4925 24.8794 27.9887 25.7351 27.1733 26.2053L21.0767 29.657C20.2537 30.1144 19.2462 30.1144 18.4233 29.657L12.3267 26.2053C11.5112 25.7351 11.0075 24.8794 11 23.9518L11 17.0483C11.0075 16.1207 11.5112 15.2651 12.3267 14.7949L18.4233 11.3431Z" stroke="white"/>
</svg>
